<?xml version="1.0" encoding="UTF-8"?>
<svg xmlns="http://www.w3.org/2000/svg" viewBox="0 0 1080 720">
  <g id="Calque_8" data-name="Calque 8">
    <rect width="1080" height="720" style="fill: #0a1a4c;"/>
  </g>
  <g id="Soleil">
    <path id="Soleil-2" data-name="Soleil" d="m704,518h-.75v-7.77h-7.51v-15.04h-7.53v-15.06h-7.53v-15.06h-7.53v-15.04h-7.53v-7.53h-7.51v-15.06h-7.53v-7.53h-15.06v-7.51h-7.53v-7.53h-15.04v-7.53h-15.06v-7.53h-15.06v-7.53h-67.75v7.53h-22.58v7.53h-15.06v7.53h-15.04v7.53h-7.53v7.51h-7.53v7.53h-7.53v7.53h-7.53v15.06h-7.53v15.04h-7.51v15.06h-7.53v15.06h-7.53v15.04h-7.53v15.06h.4v25.71h.1v14.81h7.51v15.04h7.53v15.06h7.53v15.06h7.53v15.04h7.53v7.53h7.51v15.06h7.53v7.53h15.06v7.51h7.53v7.53h15.04v7.53h15.06v7.53h15.06v7.53h67.75v-7.53h22.58v-7.53h15.06v-7.53h15.04v-7.53h7.53v-7.51h7.53v-7.53h7.53v-7.53h7.53v-15.06h7.53v-15.04h7.51v-15.06h7.53v-15.06h7.53v-15.04h7.53v-14.81h.25v-33Zm-256.22,123.09v-.76c.22.25.44.51.66.76h-.66Zm7.53,7.53v-.42c.14.14.29.28.44.42h-.44Zm97.88,37.64h-7.53v-.1c1.25.03,2.5.09,3.76.09s2.52-.06,3.77-.1v.1Zm97.38-251.31v.76c-.22-.25-.44-.51-.66-.76h.66Zm-7.53-7.53v.42c-.14-.14-.29-.28-.44-.42h.44Zm-97.88-37.64h7.53v.1c-1.25-.03-2.5-.09-3.76-.09s-2.52.06-3.77.1v-.1Z" style="fill: #e5b845;"/>
  </g>
  <g id="Montagne_Droite">
    <polygon points="730.2 555.09 730.2 547.22 738.07 547.22 738.07 539.35 745.93 539.35 745.93 531.48 753.8 531.48 753.8 523.62 753.8 515.77 753.8 507.9 761.67 507.9 761.67 500.03 769.52 500.03 769.52 492.16 769.52 484.29 761.67 484.29 753.8 484.29 745.93 484.29 738.07 484.29 730.2 484.29 730.2 476.44 722.33 476.44 722.33 468.58 714.48 468.58 714.48 460.71 706.61 460.71 706.61 452.84 714.48 452.84 722.33 452.84 730.2 452.84 738.07 452.84 738.07 460.71 745.93 460.71 753.8 460.71 753.8 452.84 753.8 444.97 745.93 444.97 745.93 437.12 745.93 429.25 738.07 429.25 738.07 421.38 730.2 421.38 730.2 413.52 722.33 413.52 722.33 405.65 714.48 405.65 714.48 397.8 706.61 397.8 706.61 405.65 698.74 405.65 698.74 413.52 698.74 421.38 690.87 421.38 690.87 429.25 683.01 429.25 683.01 437.12 683.01 444.97 675.16 444.97 675.16 452.84 675.16 460.71 667.29 460.71 667.29 468.58 667.29 476.44 659.42 476.44 659.42 484.29 651.55 484.29 651.55 492.16 643.68 492.16 643.68 500.03 635.83 500.03 635.83 507.9 635.83 515.77 627.97 515.77 627.97 523.62 627.97 531.48 620.1 531.48 620.1 539.35 620.1 547.22 620.1 555.09 620.1 562.96 612.23 562.96 612.23 570.81 604.36 570.81 604.36 578.68 604.36 584.12 600.77 584.12 600.77 587.88 597 587.88 597 591.65 593.24 591.65 593.24 595.41 593.24 599.18 589.48 599.18 589.48 602.94 589.48 606.7 585.71 606.7 585.71 610.47 585.71 614.23 581.95 614.23 581.95 618 585.71 618 589.48 618 593.24 618 597 618 600.77 618 604.36 618 604.53 618 608.3 618 612.06 618 612.23 618 615.82 618 619.59 618 620.1 618 623.35 618 627.12 618 627.97 618 630.88 618 634.64 618 635.83 618 643.68 618 651.55 618 659.42 618 667.29 618 675.16 618 683.01 618 690.87 618 690.87 610.13 690.87 602.28 698.74 602.28 698.74 594.41 698.74 586.54 706.61 586.54 714.48 586.54 714.48 578.68 722.33 578.68 722.33 570.81 722.33 562.96 730.2 562.96 730.2 555.09" style="fill: #425899;"/>
    <path d="m1054.24,614.23v-3.77h-3.77v-11.29h-3.77v-3.77h-3.77v-3.77h-3.27v-7.3h-4.25v-.22h-1.36v-5.38h-5.61v-22.45h-5.61v-11.21h-5.61v-11.22h-5.6v-5.61h-5.61v-5.61h-5.61v-5.6h-5.61v-11.22h-5.61v-11.22h-5.6v-11.21h-5.61v-5.61h-5.61v-11.22h-5.61v-5.6h-5.61v5.6h-5.6v5.61h-5.61v5.61h-5.61v5.61h-5.61v11.21h-5.61v11.22h11.22v-5.61h22.43v5.61h-5.61v5.61h-5.6v5.61h-5.61v5.6h-28.05v11.22h5.6v5.61h5.61v16.82h5.61v5.61h5.61v5.61h5.61v11.22h5.61v11.21h5.6v5.61h11.22v11.22h5.61v3.34h-11.82v-7.85h-15.74v-7.87h-7.87v-7.87h-7.87v-7.87h-1.59v-11.16h-5.61v-5.61h-5.6v-16.82h-5.61v-22.45h-11.22v-5.6h-11.21v-5.61h-16.84v4.34h-5.23v-7.87h-7.87v-7.87h-7.87v-7.87h-7.87v-7.87h-7.85v-7.85h-7.87v-7.87h-23.61v7.87h-15.72v7.85h-15.74v31.47h-7.87v23.59h-7.85v7.87h-7.87v31.45h-7.87v7.87h-7.87v23.59h-7.87v7.87h40.24s5.61,0,5.61,0h173.89s.49,0,.49,0h27.56s5.61,0,5.61,0h56.09s3.27,0,3.27,0h15.05v-3.77h-3.76Zm-190.34-63.55h18.71v-5.6h5.61v11.21h-5.61v5.61h-10.84v-6.82h-7.87v-4.41Zm1.89-22.43h-5.61v5.61h-5.61v5.61h-5.61v5.61h-.79v-5.73h-23.59v-7.87h-7.87v-15.72h7.87v7.85h41.21v4.64Z" style="fill: #425899;"/>
    <polygon points="972.36 606.79 972.36 601.18 972.36 595.57 966.75 595.57 961.14 595.57 961.14 589.95 955.54 589.95 955.54 584.34 955.54 578.74 949.93 578.74 949.93 573.13 949.93 567.52 944.32 567.52 944.32 561.91 938.71 561.91 938.71 556.3 933.09 556.3 933.09 550.68 933.09 545.09 933.09 539.48 927.48 539.48 927.48 533.86 921.88 533.86 921.88 528.25 921.88 522.64 927.48 522.64 933.09 522.64 938.71 522.64 944.32 522.64 949.93 522.64 949.93 517.04 955.54 517.04 955.54 511.43 961.14 511.43 961.14 505.82 966.75 505.82 966.75 500.21 961.14 500.21 955.54 500.21 949.93 500.21 944.32 500.21 944.32 505.82 938.71 505.82 933.09 505.82 927.48 505.82 927.48 511.43 921.88 511.43 921.88 517.04 916.27 517.04 916.27 522.64 916.27 528.25 916.27 533.86 916.27 539.48 916.27 545.09 921.88 545.09 921.88 550.68 921.88 556.3 921.88 561.91 927.48 561.91 927.48 567.52 933.09 567.52 933.09 573.13 933.09 578.74 933.09 584.34 933.09 589.95 938.71 589.95 938.71 595.57 944.32 595.57 944.32 601.18 944.32 606.79 944.32 612.39 949.93 612.39 949.93 618 955.54 618 961.14 618 966.75 618 972.36 618 977.97 618 977.97 612.39 977.97 606.79 972.36 606.79" style="fill: #2c3a66;"/>
    <polygon points="769.52 468.58 761.67 468.58 761.67 460.71 753.8 460.71 745.93 460.71 738.07 460.71 738.07 452.84 730.2 452.84 722.33 452.84 714.48 452.84 706.61 452.84 706.61 460.71 714.48 460.71 714.48 468.58 722.33 468.58 722.33 476.44 730.2 476.44 730.2 484.29 738.07 484.29 745.93 484.29 753.8 484.29 761.67 484.29 769.52 484.29 769.52 492.16 769.52 500.03 761.67 500.03 761.67 507.9 753.8 507.9 753.8 515.77 753.8 523.62 753.8 531.48 745.93 531.48 745.93 539.35 738.07 539.35 738.07 547.22 730.2 547.22 730.2 555.09 730.2 562.96 722.33 562.96 722.33 570.81 722.33 578.68 714.48 578.68 714.48 586.54 706.61 586.54 698.74 586.54 698.74 594.41 698.74 602.28 690.87 602.28 690.87 610.13 690.87 618 698.74 618 706.61 618 714.48 618 722.33 618 730.2 618 730.2 610.13 738.07 610.13 738.07 602.28 738.07 594.41 738.07 586.54 745.93 586.54 745.93 578.68 753.8 578.68 753.8 570.81 753.8 562.96 753.8 555.09 753.8 547.22 761.67 547.22 761.67 539.35 769.52 539.35 769.52 531.48 769.52 523.62 769.52 515.77 777.39 515.77 777.39 507.9 777.39 500.03 777.39 492.16 777.39 484.29 777.39 476.44 769.52 476.44 769.52 468.58" style="fill: #2c3a66;"/>
    <polygon points="903.23 531.48 895.36 531.48 887.49 531.48 879.64 531.48 871.77 531.48 871.77 523.62 863.9 523.62 856.03 523.62 848.17 523.62 840.32 523.62 832.45 523.62 824.58 523.62 824.58 515.77 816.71 515.77 816.71 523.62 816.71 531.48 824.58 531.48 824.58 539.35 832.45 539.35 840.32 539.35 848.17 539.35 848.17 547.22 856.03 547.22 863.9 547.22 863.9 550.68 860.18 550.68 854.57 550.68 848.96 550.68 848.96 556.3 843.34 556.3 837.75 556.3 832.13 556.3 826.52 556.3 826.52 561.91 820.91 561.91 820.91 567.52 820.91 573.13 826.52 573.13 832.13 573.13 832.13 578.74 837.75 578.74 843.34 578.74 848.96 578.74 848.96 573.13 854.57 573.13 854.57 567.52 860.18 567.52 865.79 567.52 865.79 561.91 871.39 561.91 871.77 561.91 871.77 562.96 879.64 562.96 887.49 562.96 895.36 562.96 895.36 555.09 903.23 555.09 911.09 555.09 911.09 547.22 911.09 539.35 903.23 539.35 903.23 531.48" style="fill: #2c3a66;"/>
  </g>
  <g id="Montagne_Centre">
    <path d="m590.21,600.94v-15.74h-7.87v-7.87h-7.87v-31.45h-7.87v-7.87h-7.85v-23.59h-7.87v-31.47h-15.74v-7.85h-15.72v-7.87h-23.61v7.87h-7.87v7.85h-7.85v7.87h-7.87v7.87h-7.87v7.87h-7.87v7.87h-5.23v-4.34h-16.84v5.61h-11.21v5.6h-11.22v22.45h-5.61v16.82h-5.6v5.61h-5.61v11.16h-7.59v7.87h-1.87v7.87h-7.87v7.87h-15.74v7.85h-11.82v-3.34h5.61v-11.22h11.22v-5.61h5.6v-11.21h5.61v-11.22h5.61v-5.61h5.61v-5.61h5.61v-16.82h5.61v-5.61h5.6v-11.22h-28.05v-5.6h-5.61v-5.61h-5.6v-5.61h-5.61v-5.61h22.43v5.61h11.22v-11.22h-5.61v-11.21h-5.61v-5.61h-5.61v-5.61h-5.61v-5.61h-5.6v-5.6h-5.61v5.6h-5.61v11.22h-5.61v5.61h-5.61v11.21h-5.6v11.22h-5.61v11.22h-5.61v5.6h-5.61v5.61h-5.61v5.61h-5.6v11.22h-5.61v11.21h-5.61v22.45h-5.61v5.38h-1.36v.22h-4.25v7.3h-3.27v3.77h-3.77v3.77h-3.77v11.29h-3.77v3.77h-3.76v3.77h18.32s5.61,0,5.61,0h56.09s3.97,0,3.97,0h24.07s5.61,0,5.61,0h173.89s.91,0,.91,0h39.32v-7.87h-7.87v-7.85Zm-144.55-57.19v5.6h18.71v4.41h-7.87v6.82h-10.84v-5.61h-5.61v-11.21h5.61Zm34.45-21.47h23.59v-7.85h7.87v15.72h-7.87v7.87h-23.59v5.73h-.79v-5.61h-5.61v-5.61h-5.61v-5.61h-5.61v-4.64h17.63Z" style="fill: #5e71a8;"/>
    <polygon points="742.57 612.89 742.57 609.12 742.57 605.36 738.8 605.36 738.8 601.6 738.8 597.83 735.03 597.83 735.03 594.07 735.03 590.3 731.28 590.3 731.28 586.54 727.51 586.54 727.51 582.78 723.92 582.78 723.92 577.33 723.92 569.46 716.05 569.46 716.05 561.62 708.18 561.62 708.18 553.75 708.18 545.88 708.18 538.01 708.18 530.14 700.31 530.14 700.31 522.27 700.31 514.42 692.44 514.42 692.44 506.55 692.44 498.69 684.6 498.69 684.6 490.82 676.73 490.82 676.73 482.95 668.86 482.95 668.86 475.1 660.99 475.1 660.99 467.23 660.99 459.36 653.12 459.36 653.12 451.49 653.12 443.63 645.27 443.63 645.27 435.78 645.27 427.91 637.4 427.91 637.4 420.04 629.54 420.04 629.54 412.17 629.54 404.3 621.67 404.3 621.67 396.46 613.8 396.46 613.8 404.3 605.95 404.3 605.95 412.17 598.08 412.17 598.08 420.04 590.21 420.04 590.21 427.91 582.34 427.91 582.34 435.78 582.34 443.63 574.48 443.63 574.48 451.49 574.48 459.36 582.34 459.36 590.21 459.36 590.21 451.49 598.08 451.49 605.95 451.49 613.8 451.49 621.67 451.49 621.67 459.36 613.8 459.36 613.8 467.23 605.95 467.23 605.95 475.1 598.08 475.1 598.08 482.95 590.21 482.95 582.34 482.95 574.48 482.95 566.61 482.95 558.76 482.95 558.76 490.82 558.76 498.69 566.61 498.69 566.61 506.55 574.48 506.55 574.48 514.42 574.48 522.27 574.48 530.14 582.34 530.14 582.34 538.01 590.21 538.01 590.21 545.88 598.08 545.88 598.08 553.75 598.08 561.62 605.95 561.62 605.95 569.46 605.95 577.33 613.8 577.33 613.8 585.2 621.67 585.2 629.54 585.2 629.54 593.07 629.54 600.94 637.4 600.94 637.4 608.79 637.4 616.65 645.27 616.65 653.12 616.65 660.99 616.65 668.86 616.65 676.73 616.65 684.6 616.65 692.44 616.65 693.64 616.65 697.39 616.65 700.31 616.65 701.16 616.65 704.92 616.65 708.18 616.65 708.69 616.65 712.46 616.65 716.05 616.65 716.21 616.65 719.98 616.65 723.75 616.65 723.92 616.65 727.51 616.65 731.28 616.65 735.03 616.65 738.8 616.65 742.57 616.65 746.33 616.65 746.33 612.89 742.57 612.89" style="fill: #5e71a8;"/>
    <polygon points="406.39 510.09 400.8 510.09 400.8 504.47 395.18 504.47 389.57 504.47 383.96 504.47 383.96 498.86 378.35 498.86 372.74 498.86 367.14 498.86 361.53 498.86 361.53 504.47 367.14 504.47 367.14 510.09 372.74 510.09 372.74 515.7 378.35 515.7 378.35 521.3 383.96 521.3 389.57 521.3 395.18 521.3 400.8 521.3 406.39 521.3 406.39 526.91 406.39 532.52 400.8 532.52 400.8 538.13 395.18 538.13 395.18 543.74 395.18 549.34 395.18 554.95 389.57 554.95 389.57 560.56 383.96 560.56 383.96 566.18 378.35 566.18 378.35 571.79 378.35 577.4 372.74 577.4 372.74 583 372.74 588.61 367.14 588.61 367.14 594.22 361.53 594.22 355.91 594.22 355.91 599.83 355.91 605.45 350.3 605.45 350.3 611.04 350.3 616.66 355.91 616.66 361.53 616.66 367.14 616.66 372.74 616.66 378.35 616.66 378.35 611.04 383.96 611.04 383.96 605.45 383.96 599.83 383.96 594.22 389.57 594.22 389.57 588.61 395.18 588.61 395.18 583 395.18 577.4 395.18 571.79 395.18 566.18 400.8 566.18 400.8 560.56 406.39 560.56 406.39 554.95 406.39 549.34 406.39 543.74 412.01 543.74 412.01 538.13 412.01 532.52 412.01 526.91 412.01 521.3 412.01 515.7 406.39 515.7 406.39 510.09" style="fill: #425899;"/>
    <polygon points="629.54 600.94 629.54 593.07 629.54 585.2 621.67 585.2 613.8 585.2 613.8 577.33 605.95 577.33 605.95 569.46 605.95 561.62 598.08 561.62 598.08 553.75 598.08 545.88 590.21 545.88 590.21 538.01 582.34 538.01 582.34 530.14 574.48 530.14 574.48 522.27 574.48 514.42 574.48 506.55 566.61 506.55 566.61 498.69 558.76 498.69 558.76 490.82 558.76 482.95 566.61 482.95 574.48 482.95 582.34 482.95 590.21 482.95 598.08 482.95 598.08 475.1 605.95 475.1 605.95 467.23 613.8 467.23 613.8 459.36 621.67 459.36 621.67 451.49 613.8 451.49 605.95 451.49 598.08 451.49 590.21 451.49 590.21 459.36 582.34 459.36 574.48 459.36 566.61 459.36 566.61 467.23 558.76 467.23 558.76 475.1 550.89 475.1 550.89 482.95 550.89 490.82 550.89 498.69 550.89 506.55 550.89 514.42 558.76 514.42 558.76 522.27 558.76 530.14 558.76 538.01 566.61 538.01 566.61 545.88 574.48 545.88 574.48 553.75 574.48 561.62 574.48 569.46 574.48 577.33 582.34 577.33 582.34 585.2 590.21 585.2 590.21 593.07 590.21 600.94 590.21 608.79 598.08 608.79 598.08 616.65 605.95 616.65 613.8 616.65 621.67 616.65 629.54 616.65 637.4 616.65 637.4 608.79 637.4 600.94 629.54 600.94" style="fill: #425899;"/>
    <polygon points="503.7 522.27 495.83 522.27 487.96 522.27 480.11 522.27 472.24 522.27 464.38 522.27 456.51 522.27 456.51 530.14 448.64 530.14 440.79 530.14 432.92 530.14 425.05 530.14 425.05 538.01 417.18 538.01 417.18 545.88 417.18 553.75 425.05 553.75 432.92 553.75 432.92 561.62 440.79 561.62 448.64 561.62 456.51 561.62 456.51 560.56 456.89 560.56 462.49 560.56 462.49 566.18 468.1 566.18 473.71 566.18 473.71 571.79 479.32 571.79 479.32 577.4 484.93 577.4 490.53 577.4 496.14 577.4 496.14 571.79 501.75 571.79 507.37 571.79 507.37 566.18 507.37 560.56 501.75 560.56 501.75 554.95 496.14 554.95 490.53 554.95 484.93 554.95 479.32 554.95 479.32 549.34 473.71 549.34 468.1 549.34 464.38 549.34 464.38 545.88 472.24 545.88 480.11 545.88 480.11 538.01 487.96 538.01 495.83 538.01 503.7 538.01 503.7 530.14 511.57 530.14 511.57 522.27 511.57 514.42 503.7 514.42 503.7 522.27" style="fill: #425899;"/>
  </g>
  <g id="Montagne_Gauche">
    <polygon points="265.12 601.61 265.12 594.08 265.12 586.55 257.59 586.55 257.59 579.02 250.06 579.02 250.06 571.48 250.06 563.97 250.06 556.44 250.06 548.91 242.52 548.91 242.52 541.38 235.01 541.38 235.01 533.84 235.01 526.31 235.01 518.8 227.48 518.8 227.48 511.27 227.48 503.74 227.48 496.2 227.48 488.67 219.95 488.67 212.42 488.67 212.42 481.16 204.88 481.16 197.37 481.16 197.37 473.63 189.84 473.63 182.31 473.63 174.78 473.63 174.78 481.16 167.24 481.16 167.24 488.67 159.73 488.67 159.73 496.2 152.2 496.2 152.2 503.74 144.67 503.74 144.67 511.27 137.14 511.27 137.14 518.8 129.6 518.8 122.09 518.8 122.09 526.31 114.56 526.31 114.56 533.84 122.09 533.84 129.6 533.84 137.14 533.84 137.14 526.31 144.67 526.31 152.2 526.31 159.73 526.31 167.24 526.31 174.78 526.31 182.31 526.31 182.31 518.8 189.84 518.8 189.84 526.31 189.84 533.84 182.31 533.84 182.31 541.38 174.78 541.38 167.24 541.38 159.73 541.38 159.73 548.91 152.2 548.91 144.67 548.91 144.67 556.44 137.14 556.44 137.14 563.97 129.6 563.97 122.09 563.97 114.56 563.97 114.56 556.44 107.03 556.44 99.5 556.44 99.5 563.97 91.96 563.97 91.96 571.48 84.43 571.48 84.43 579.02 76.92 579.02 76.92 586.55 69.39 586.55 69.39 594.08 61.86 594.08 61.86 601.61 54.32 601.61 46.79 601.61 46.79 609.12 39.28 609.12 31.75 609.12 31.75 616.66 39.28 616.66 46.79 616.66 54.32 616.66 61.86 616.66 69.39 616.66 76.92 616.66 84.43 616.66 91.96 616.66 99.5 616.66 107.03 616.66 114.56 616.66 122.09 616.66 129.6 616.66 137.14 616.66 144.67 616.66 152.2 616.66 159.73 616.66 167.24 616.66 174.78 616.66 182.31 616.66 189.84 616.66 197.37 616.66 204.88 616.66 212.42 616.66 219.95 616.66 227.48 616.66 235.01 616.66 242.52 616.66 250.06 616.66 257.59 616.66 265.12 616.66 272.65 616.66 272.65 609.12 265.12 609.12 265.12 601.61" style="fill: #425899;"/>
    <path d="m464.61,601.81v-15.04h-7.53v-15.06h-7.51v-7.53h-7.53v-15.04h-7.53v-7.53h-7.53v-7.53h-7.53v-7.53h-15.04v-7.53h-15.06v23.16h-7.52v6.97h-3.76v-15.28h-7.53v-15.04h-7.53v-15.06h-7.51v-7.53h-7.53v-7.53h-7.53v-7.51h-7.53v-15.06h-7.53v-15.06h-7.51v-15.04h-7.53v-7.53h-7.53v-15.06h-7.53v-7.51h-7.53v7.51h-7.51v7.53h-7.53v7.53h-7.53v7.53h-7.53v15.04h-7.53v15.06h15.06v-7.53h30.11v7.53h-7.53v7.53h-7.51v7.53h-7.53v7.51h-37.64v15.06h7.51v7.53h7.53v22.58h7.53v7.53h7.53v7.53h7.53v15.06h7.53v15.04h7.51v7.53h15.06v15.06h7.53v15.04h18.82v.22h60.22v-.22h3.78v-44.95h3.76v7.53h7.53s7.5,0,7.5,0h0s-7.5,0-7.5,0v15.04h7.51s7.52,0,7.52,0h0s-7.52,0-7.52,0v7.52h0v7.53h7.53v7.53h52.7v-15.06h-7.53Zm-75.27-37.63v7.31h-3.76v-7.51h-7.53v-7.34h11.28v7.53h15.06s-7.52,0-7.52,0h-7.53Z" style="fill: #425899;"/>
    <polygon points="411.9 609.34 411.9 601.81 411.9 594.28 404.39 594.28 404.39 586.76 404.39 579.23 396.86 579.23 396.86 571.7 389.32 571.7 389.32 564.17 389.32 556.64 381.79 556.64 374.26 556.64 374.26 564.17 381.79 564.17 381.79 571.7 381.79 579.23 389.32 579.23 389.32 586.76 389.32 594.28 396.86 594.28 396.86 601.81 404.39 601.81 404.39 609.34 404.39 616.87 411.9 616.87 419.43 616.87 419.43 609.34 411.9 609.34" style="fill: #0a1a4c;"/>
    <polygon points="302.76 594.08 302.76 586.55 295.23 586.55 287.7 586.55 287.7 579.02 280.18 579.02 280.18 571.48 280.18 563.97 272.65 563.97 272.65 556.44 272.65 548.91 265.12 548.91 265.12 541.38 257.59 541.38 257.59 533.84 250.06 533.84 250.06 526.31 250.06 518.8 250.06 511.27 242.52 511.27 242.52 503.74 235.01 503.74 235.01 496.2 235.01 488.67 242.52 488.67 250.06 488.67 257.59 488.67 265.12 488.67 272.65 488.67 272.65 481.16 280.18 481.16 280.18 473.63 287.7 473.63 287.7 466.1 295.23 466.1 295.23 458.56 287.7 458.56 280.18 458.56 272.65 458.56 265.12 458.56 265.12 466.1 257.59 466.1 250.06 466.1 242.52 466.1 242.52 473.63 235.01 473.63 235.01 481.16 227.48 481.16 227.48 488.67 227.48 496.2 227.48 503.74 227.48 511.27 227.48 518.8 235.01 518.8 235.01 526.31 235.01 533.84 235.01 541.38 242.52 541.38 242.52 548.91 250.06 548.91 250.06 556.44 250.06 563.97 250.06 571.48 250.06 579.02 257.59 579.02 257.59 586.55 265.12 586.55 265.12 594.08 265.12 601.61 265.12 609.12 272.65 609.12 272.65 616.66 280.18 616.66 287.7 616.66 295.23 616.66 302.76 616.66 310.29 616.66 310.29 609.12 310.29 601.61 302.76 601.61 302.76 594.08" style="fill: #2c3a66;"/>
    <polygon points="182.31 526.31 174.78 526.31 167.24 526.31 159.73 526.31 152.2 526.31 144.67 526.31 137.14 526.31 137.14 533.84 129.6 533.84 122.09 533.84 114.56 533.84 107.03 533.84 107.03 541.38 99.5 541.38 99.5 548.91 99.5 556.44 107.03 556.44 114.56 556.44 114.56 563.97 122.09 563.97 129.6 563.97 137.14 563.97 137.14 556.44 144.67 556.44 144.67 548.91 152.2 548.91 159.73 548.91 159.73 541.38 167.24 541.38 174.78 541.38 182.31 541.38 182.31 533.84 189.84 533.84 189.84 526.31 189.84 518.8 182.31 518.8 182.31 526.31" style="fill: #2c3a66;"/>
    <polygon points="472.14 594.28 472.14 586.76 472.14 579.23 464.61 579.23 464.61 571.7 464.61 564.17 457.07 564.17 457.07 556.64 449.56 556.64 449.56 549.12 449.56 541.59 442.03 541.59 442.03 534.06 434.5 534.06 434.5 526.53 426.97 526.53 426.97 519 419.43 519 411.9 519 411.9 511.48 404.39 511.48 404.39 503.95 396.86 503.95 396.86 511.48 396.86 519 404.39 519 404.39 526.53 411.9 526.53 419.43 526.53 419.43 534.06 426.97 534.06 426.97 541.59 434.5 541.59 434.5 549.12 442.03 549.12 442.03 556.64 442.03 564.17 449.56 564.17 449.56 571.7 457.07 571.7 457.07 579.23 457.07 586.76 464.61 586.76 464.61 594.28 464.61 601.81 472.14 601.81 472.14 609.34 472.14 616.87 479.67 616.87 479.67 609.34 479.67 601.81 479.67 594.28 472.14 594.28" style="fill: #2c3a66;"/>
    <polygon points="396.86 594.28 389.32 594.28 389.32 586.76 389.32 579.23 381.79 579.23 381.79 571.7 381.79 564.17 374.26 564.17 374.26 556.64 366.75 556.64 366.75 564.17 359.22 564.17 359.22 571.7 359.22 579.23 366.75 579.23 366.75 586.76 374.26 586.76 374.26 594.28 374.26 601.81 381.79 601.81 381.79 609.34 389.32 609.34 389.32 616.87 396.86 616.87 404.39 616.87 404.39 609.34 404.39 601.81 396.86 601.81 396.86 594.28" style="fill: #2c3a66;"/>
  </g>
  <g id="Socle">
    <g id="BAS">
      <rect x="33" y="606" width="1022" height="13" style="fill: #d06ca0;"/>
      <rect x="128" y="618.5" width="857" height="13" style="fill: #c62c7b;"/>
      <rect x="193" y="631" width="727" height="13" style="fill: #94215c;"/>
      <rect x="246" y="644" width="621" height="13" style="fill: #d06ca0;"/>
      <rect x="339" y="669" width="437" height="13" style="fill: #d06ca0;"/>
      <rect x="385" y="682" width="345" height="13" style="fill: #c62c7b;"/>
      <rect x="303" y="656" width="507" height="13" style="fill: #94215c;"/>
      <rect x="425" y="628" width="135" height="6" style="fill: #c62c7b;"/>
      <rect x="547" y="616" width="131" height="6" style="fill: #c62c7b;"/>
      <rect x="592" y="679" width="131" height="6" style="fill: #c62c7b;"/>
      <rect x="697" y="629" width="131" height="6" style="fill: #c62c7b;"/>
      <rect x="427" y="668" width="131" height="6" style="fill: #94215c;"/>
      <rect x="580" y="654" width="131" height="6" style="fill: #94215c;"/>
    </g>
  </g>
  <g id="Nuage_Gauche">
    <polygon points="383.03 419.15 383.03 430.65 371.53 430.65 371.53 442.15 371.53 453.62 383.03 453.62 383.03 442.15 394.54 442.15 394.54 430.65 394.54 419.15 383.03 419.15" style="fill: #c62c7b;"/>
    <polygon points="302.54 407.64 291.07 407.64 291.07 419.15 279.57 419.15 279.57 430.65 268.07 430.65 268.07 442.15 279.57 442.15 291.07 442.15 291.07 430.65 302.54 430.65 302.54 419.15 314.05 419.15 314.05 407.64 314.05 396.14 302.54 396.14 302.54 407.64" style="fill: #c62c7b;"/>
    <polygon points="475.02 442.15 475.02 430.65 475.02 419.15 463.52 419.15 463.52 407.64 452.02 407.64 452.02 396.14 440.52 396.14 429.01 396.14 429.01 407.64 417.54 407.64 417.54 419.15 406.04 419.15 406.04 430.65 394.54 430.65 394.54 442.15 383.03 442.15 383.03 453.62 371.53 453.62 371.53 442.15 371.53 430.65 383.03 430.65 383.03 419.15 383.03 407.64 371.53 407.64 371.53 396.14 360.06 396.14 348.55 396.14 337.05 396.14 337.05 407.64 325.55 407.64 314.05 407.64 314.05 419.15 302.54 419.15 302.54 430.65 291.07 430.65 291.07 442.15 279.57 442.15 268.07 442.15 268.07 430.65 279.57 430.65 279.57 419.15 291.07 419.15 291.07 407.64 302.54 407.64 302.54 396.14 302.54 384.67 291.07 384.67 291.07 373.17 279.57 373.17 268.07 373.17 256.56 373.17 245.06 373.17 233.59 373.17 233.59 384.67 222.09 384.67 222.09 396.14 210.58 396.14 210.58 407.64 199.08 407.64 199.08 419.15 199.08 430.65 187.58 430.65 187.58 442.15 176.1 442.15 176.1 453.62 164.6 453.62 164.6 465.13 176.1 465.13 187.58 465.13 199.08 465.13 210.58 465.13 210.58 453.62 222.09 453.62 233.59 453.62 245.06 453.62 256.56 453.62 268.07 453.62 268.07 465.13 279.57 465.13 291.07 465.13 302.54 465.13 314.05 465.13 325.55 465.13 325.55 453.62 337.05 453.62 348.55 453.62 360.06 453.62 360.06 465.13 371.53 465.13 383.03 465.13 394.54 465.13 406.04 465.13 417.54 465.13 429.01 465.13 440.52 465.13 440.52 453.62 452.02 453.62 463.52 453.62 475.02 453.62 486.5 453.62 486.5 442.15 475.02 442.15" style="fill: #d06ca0;"/>
    <polygon points="486.5 465.13 486.5 453.62 475.02 453.62 463.52 453.62 452.02 453.62 440.52 453.62 440.52 465.13 429.01 465.13 417.54 465.13 406.04 465.13 394.54 465.13 383.03 465.13 371.53 465.13 360.06 465.13 360.06 453.62 348.55 453.62 337.05 453.62 325.55 453.62 325.55 465.13 314.05 465.13 302.54 465.13 291.07 465.13 279.57 465.13 268.07 465.13 268.07 453.62 256.56 453.62 245.06 453.62 233.59 453.62 222.09 453.62 210.58 453.62 210.58 465.13 199.08 465.13 187.58 465.13 176.1 465.13 164.6 465.13 153.1 465.13 153.1 476.63 164.6 476.63 176.1 476.63 187.58 476.63 199.08 476.63 210.58 476.63 222.09 476.63 233.59 476.63 245.06 476.63 256.56 476.63 268.07 476.63 279.57 476.63 291.07 476.63 302.54 476.63 314.05 476.63 325.55 476.63 337.05 476.63 348.55 476.63 360.06 476.63 371.53 476.63 383.03 476.63 394.54 476.63 406.04 476.63 417.54 476.63 429.01 476.63 440.52 476.63 452.02 476.63 463.52 476.63 475.02 476.63 486.5 476.63 498 476.63 498 465.13 486.5 465.13" style="fill: #94215c;"/>
  </g>
  <g id="Nuage_Droite">
    <polygon points="630.07 368.15 622.77 368.15 622.77 375.45 622.77 382.75 630.07 382.75 630.07 390.03 637.37 390.03 637.37 382.75 637.37 375.45 630.07 375.45 630.07 368.15" style="fill: #c62c7b;"/>
    <polygon points="695.73 375.45 695.73 368.15 688.43 368.15 688.43 360.85 681.15 360.85 681.15 353.55 673.85 353.55 673.85 360.85 673.85 368.15 681.15 368.15 681.15 375.45 688.43 375.45 688.43 382.75 695.73 382.75 703.03 382.75 703.03 375.45 695.73 375.45" style="fill: #c62c7b;"/>
    <polygon points="761.4 390.03 761.4 382.75 754.12 382.75 754.12 375.45 746.82 375.45 746.82 368.15 746.82 360.85 739.52 360.85 739.52 353.55 732.22 353.55 732.22 346.26 724.92 346.26 724.92 338.96 717.63 338.96 710.33 338.96 703.03 338.96 695.73 338.96 688.43 338.96 688.43 346.26 681.15 346.26 681.15 353.55 681.15 360.85 688.43 360.85 688.43 368.15 695.73 368.15 695.73 375.45 703.03 375.45 703.03 382.75 695.73 382.75 688.43 382.75 688.43 375.45 681.15 375.45 681.15 368.15 673.85 368.15 673.85 360.85 666.55 360.85 659.25 360.85 659.25 353.55 651.95 353.55 644.65 353.55 637.37 353.55 637.37 360.85 630.07 360.85 630.07 368.15 630.07 375.45 637.37 375.45 637.37 382.75 637.37 390.03 630.07 390.03 630.07 382.75 622.77 382.75 622.77 375.45 615.47 375.45 615.47 368.15 608.17 368.15 608.17 360.85 600.88 360.85 600.88 353.55 593.58 353.55 586.28 353.55 586.28 360.85 578.98 360.85 578.98 368.15 571.68 368.15 571.68 375.45 571.68 382.75 564.4 382.75 564.4 390.03 571.68 390.03 578.98 390.03 586.28 390.03 593.58 390.03 593.58 397.33 600.88 397.33 608.17 397.33 615.47 397.33 622.77 397.33 630.07 397.33 637.37 397.33 644.65 397.33 644.65 390.03 651.95 390.03 659.25 390.03 666.55 390.03 666.55 397.33 673.85 397.33 681.15 397.33 688.43 397.33 695.73 397.33 703.03 397.33 703.03 390.03 710.33 390.03 717.63 390.03 724.92 390.03 732.22 390.03 739.52 390.03 739.52 397.33 746.82 397.33 754.12 397.33 761.4 397.33 768.7 397.33 768.7 390.03 761.4 390.03" style="fill: #d06ca0;"/>
    <polygon points="768.7 397.33 761.4 397.33 754.12 397.33 746.82 397.33 739.52 397.33 739.52 390.03 732.22 390.03 724.92 390.03 717.63 390.03 710.33 390.03 703.03 390.03 703.03 397.33 695.73 397.33 688.43 397.33 681.15 397.33 673.85 397.33 666.55 397.33 666.55 390.03 659.25 390.03 651.95 390.03 644.65 390.03 644.65 397.33 637.37 397.33 630.07 397.33 622.77 397.33 615.47 397.33 608.17 397.33 600.88 397.33 593.58 397.33 593.58 390.03 586.28 390.03 578.98 390.03 571.68 390.03 564.4 390.03 564.4 397.33 557.1 397.33 557.1 404.63 564.4 404.63 571.68 404.63 578.98 404.63 586.28 404.63 593.58 404.63 600.88 404.63 608.17 404.63 615.47 404.63 622.77 404.63 630.07 404.63 637.37 404.63 644.65 404.63 651.95 404.63 659.25 404.63 666.55 404.63 673.85 404.63 681.15 404.63 688.43 404.63 695.73 404.63 703.03 404.63 710.33 404.63 717.63 404.63 724.92 404.63 732.22 404.63 739.52 404.63 746.82 404.63 754.12 404.63 761.4 404.63 768.7 404.63 776 404.63 776 397.33 768.7 397.33" style="fill: #94215c;"/>
  </g>
</svg>