<?xml version="1.0" encoding="UTF-8"?>
<svg id="LOGODEF_Image" data-name="LOGODEF Image" xmlns="http://www.w3.org/2000/svg" viewBox="0 0 865.91 472.87">
  <path d="m7.33,407.5c0-6.14-.11-13.65.04-21.16.11-5.44-.29-10.85-.24-16.28,0-.8-.06-1.6-.18-2.39-.86-5.4-.67-10.82-.56-16.26.16-8.14.2-16.29-.29-24.43-.27-4.49.21-8.94.71-13.38.29-2.56.3-5.08.02-7.64-.25-2.21-.25-4.46-.25-6.69,0-3.03.15-6.07.16-9.1.02-3.2,0-6.38.42-9.57.34-2.54.24-5.09-.13-7.65-.23-1.57-.44-3.2-.26-4.76.52-4.5.06-8.97-.54-13.38-.49-3.66-.72-7.31-.85-10.98-.18-4.95-.14-9.9.64-14.83.3-1.88.32-3.82.38-5.73.13-4.15.19-8.31.29-12.46.11-4.47.19-8.94-.04-13.42-.13-2.55-.03-5.11-.02-7.67,0-.32.05-.64.04-.96-.21-7.83-.38-15.65-.67-23.48-.13-3.68-.31-7.34.31-11,.62-3.7,2.02-7.09,4.39-9.98,3.38-4.12,7.53-7.39,12.18-9.97,3.55-1.97,7.54-2.57,11.53-2.92,2.22-.19,4.47-.18,6.71-.18,11.19.02,22.38.07,33.57.09,4.32,0,8.63-.09,12.95,0,6.09.12,12.13-.55,18.19-1.04,1.91-.15,3.79-.56,5.68-.89,7.24-1.24,14.47-2.52,21.72-3.72,4.57-.76,9.12-1.61,13.71-2.25,5.72-.8,11.46-1.01,17.21-1.21,1.28-.05,2.56-.05,3.84,0,2.57.11,5.11.07,7.57-.81.45-.16.93-.24,1.41-.29,6.2-.62,12.3-1.86,18.42-2.96,2.83-.51,5.7-.78,8.56-1.04,5.09-.47,10.17-1.06,15.21-1.96,2.83-.5,5.65-1.06,8.47-1.58,4.24-.78,8.47-1.61,12.72-2.32,4.25-.7,8.5-1.48,12.84-1.44.6,0,1.27-.26,1.78-.6,1.51-1.01,3.2-1.39,4.93-1.75,10.94-2.28,21.92-4.37,32.76-7.12,5.27-1.34,10.62-2.29,15.95-3.29,3.46-.65,6.88-1.45,10.23-2.51,3.37-1.06,6.8-1.81,10.27-2.31,3.17-.45,6.29-1.11,9.41-1.79,5-1.07,10.04-1.87,15.13-2.42,4.6-.5,9.15-1.43,13.71-2.25,9.75-1.77,19.31-4.37,28.96-6.56,5.61-1.27,11.15-2.77,16.65-4.47,2.59-.8,5.25-1.35,7.9-1.95,9.65-2.21,19.46-3.65,29.15-5.67,6.25-1.3,12.52-2.54,18.78-3.82,1.41-.29,2.81-.6,4.2-.99,5.7-1.59,11.59-2.28,17.35-3.61,4.98-1.15,9.93-2.4,14.87-3.7,6.18-1.62,12.25-3.65,18.55-4.76,7.55-1.34,15.01-3.08,22.49-4.78,2.8-.64,5.67-.96,8.5-1.45,1.42-.24,2.83-.5,4.23-.81,3.74-.81,7.49-1.61,11.22-2.49,3.57-.84,7.16-1.67,10.68-2.7,8.44-2.46,17.04-4.24,25.62-6.11,4.36-.95,8.82-1.5,13.23-2.22,3.31-.54,6.62-1.08,9.94-1.56,1.26-.18,2.55-.26,3.82-.26,6.9,0,13.7-.94,20.45-2.28,9.56-1.89,19.13-3.68,28.75-5.23,8.67-1.39,17.38-2.61,26.08-3.8,3.16-.44,6.36-.62,9.55-.87,3.51-.27,6.99-.72,10.45-1.38,2.68-.51,5.38-.7,8.1-.86,5.43-.31,10.82-.97,16.21-1.68,12.04-1.59,24.11-2.9,36.27-3.3,9.74-.32,19.48-.97,29.22-1.42,9.21-.43,18.15.86,26.73,4.35,2.12.86,3.96,2.08,5.47,3.77,2.95,3.3,4.79,7.05,5.21,11.57.49,5.26.87,10.51.89,15.78,0,1.11.03,2.25.24,3.34.44,2.23.34,4.46.11,6.68-.75,7.16-.94,14.35-1.25,21.53-.29,6.7-.72,13.41-.4,20.13.05,1.11-.07,2.24-.25,3.34-.59,3.64-.78,7.31-.73,10.99.09,6.23.22,12.46.34,18.69,0,.16,0,.32.02.48.9,5.54.67,11.16,1.32,16.72.47,3.98.44,7.97.24,11.97-.3,6.22-.57,12.45-.8,18.68-.12,3.35-.09,6.7-.67,10.02-.2,1.12-.01,2.22.3,3.31.67,2.36.67,4.73-.06,7.08-.53,1.71-.54,3.46-.43,5.23.09,1.44.31,2.87.26,4.3-.12,3.69.19,7.33.97,10.94.3,1.38.28,2.86.25,4.29-.12,7.03-.32,14.06-.43,21.09-.11,6.87-.11,13.73-.21,20.6-.04,2.39-.29,4.78-.36,7.18-.08,2.55-.22,5.12-.05,7.66.31,4.79.41,9.58.37,14.37-.06,7.51-.15,15.02-.11,22.53.02,3.69-.3,7.34-.68,11-.3,2.93-1.41,5.57-3.21,7.89-1.08,1.38-2.31,2.65-3.49,3.94-2.9,3.16-6.49,5.03-10.66,6.06-3.93.97-7.9,1.15-11.89,1.2-3.84.05-7.66-.05-11.47.63-1.4.25-2.87.16-4.31.17-3.04.03-6.08.1-9.11.02-4.5-.12-8.93.43-13.33,1.25-.94.17-1.89.39-2.84.43-7.35.28-14.66,1.16-21.99,1.66-1.59.11-3.2.06-4.79.09-3.52.05-7.03.07-10.55.18-1.59.05-3.18.27-4.77.45-1.9.21-3.8.46-5.7.69-.95.11-1.95.08-2.85.36-1.88.58-3.79.65-5.7.51-3.56-.25-7.03.36-10.41,1.29-3.24.9-6.52,1.52-9.82,2.12-4.71.85-9.41,1.79-14.09,2.8-5.94,1.28-11.92,2.25-17.92,3.2-.79.12-1.59.17-2.38.24-8.28.73-16.54,1.6-24.83,2.14-2.55.17-5.1.47-7.62.83-1.41.2-2.81.6-4.18,1.03-3.06.97-6.21,1.44-9.39,1.82-4.75.57-9.5,1.14-14.15,2.42-2.45.67-5.02,1.03-7.55,1.24-3.36.28-6.64.9-9.91,1.66-4.19.98-8.34,2.15-12.66,2.58-2.53.25-5.01.96-7.45,1.75-3.34,1.08-6.72,2.03-10.11,2.96-4.16,1.14-8.33,2.21-12.5,3.31-4.34,1.15-8.83,1.38-13.23,2.17-5.34.96-10.77,1.42-16.06,2.7-.92.22-1.9.27-2.85.34-3.83.3-7.58,1.01-11.28,2.08-9.51,2.74-19.01,5.53-28.64,7.85-2.02.49-4.05,1.03-6.1,1.22-5.1.47-10.13,1.36-15.18,2.14-2.05.32-4.11.65-6.12,1.16-4.64,1.18-9.23,2.58-13.89,3.69-6.98,1.67-13.87,3.74-20.97,4.91-1.89.31-3.73.86-5.61,1.27-2.5.54-5.01,1.01-7.49,1.59-2.02.47-4.03.99-6,1.64-5.92,1.94-11.98,3.4-17.99,5.02-3.26.88-6.6,1.27-9.93,1.59-4.79.46-9.48,1.35-14.19,2.23-5.49,1.03-11,1.99-16.35,3.64-2.74.85-5.53,1.58-8.25,2.48-3.04,1-6.08,1.92-9.23,2.54-2.03.39-4.01,1.06-5.97,1.71-3.04,1-6.04,2.06-9.28,2.25-1.26.08-2.53.39-3.75.76-4.15,1.24-8.39,1.95-12.67,2.5-2.69.34-5.35.92-8.04,1.29-3.64.5-7.29.93-10.98.96-2.07.02-4.12.3-6.18.65-7.25,1.24-14.38,2.99-21.53,4.66-5.75,1.34-11.51,2.68-17.28,3.94-4.84,1.05-9.75,1.71-14.66,2.32-6.34.8-12.68,1.58-19.06,2.04-.95.07-1.89.33-2.82.52-6.11,1.23-12.26,2.27-18.45,2.92-5.08.54-10.14,1.28-15.27,1.45-3.82.12-7.63.66-11.42,1.28-3.46.56-6.98,1-10.48,1.07-5.46.11-10.82.91-16.21,1.59-3.96.5-7.91,1.08-11.87,1.62-2.85.39-5.69.79-8.54,1.15-6.98.89-14,1.32-21.04,1.21-3.52-.05-7.04-.08-10.55,0-4.47.11-8.92.51-13.37,1.03-7.45.87-14.88,1.93-22.44,1.63-3.8-.16-7.26-1.17-10.48-2.97-3.91-2.18-7.55-4.78-10.74-7.97-2.75-2.75-4.05-6.09-4.31-9.86-.12-1.75.05-3.51.07-5.27.03-3.03.16-6.07.04-9.1-.18-4.64-.15-9.26.19-13.89.31-4.14.37-8.3.6-13.82Zm827.18-83.32c.27-.08.55-.17.82-.25-.08-.1-.16-.3-.24-.29-.36.01-.53.24-.5.62l-.08-.08Zm-33.7,4.72c-3.72.07-7.33,1.04-11.01,1.44-.37.04-.7.54-1.06.82-3.37-.32-6.72-.18-10.03.57-1.58.06-3.16.16-4.74.17-4.12.03-8.24.12-12.35,0-5.26-.14-10.39.81-15.57,1.43-.3.04-.59.23-.88.35-5.6.17-11.14.86-16.62,2.02-2.5.53-5.03.89-7.55,1.28-2.52.39-5.07.62-7.58,1.08-8.63,1.59-17.26,3.22-25.88,4.89-3.77.73-7.53,1.37-11.38,1.56-1.91.09-3.81.4-5.72.56-3.98.34-7.89,1.4-11.9,1.3-5.46-.13-10.82.85-16.23,1.28-2.55.2-5.09.52-7.61.91-6,.92-11.98,1.89-17.97,2.88-2.36.39-4.72.81-7.05,1.34-8.08,1.87-16.14,3.83-24.23,5.69-8.55,1.96-17.12,3.91-25.76,5.43-1.73.3-3.44.7-5.14,1.13-.34.09-.59.54-.94.89.47.1.79.24,1.09.21,3.33-.36,6.66-.71,9.99-1.16,1.42-.19,2.84-.51,4.21-.92,8.57-2.57,17.22-4.74,26.01-6.44,3.44-.67,6.89-1.33,10.21-2.53,4.09-1.48,8.34-2.13,12.69-2.14,2.72,0,5.43-.01,8.15-.07,1.76-.04,3.52-.06,5.26-.28,7.45-.95,14.92-1.69,22.44-1.67.8,0,1.6-.07,2.4-.06,2.11.03,4.12-.39,6.06-1.22,2.8-1.21,5.74-2.04,8.75-2.42,7.6-.96,15.13-2.41,22.77-3.14,4.28-.41,8.51-1.24,12.67-2.5,3.96-1.21,8-2.27,12.08-2.99,8.33-1.47,16.62-3.18,25.04-4.14.58-.07,1.12-.54,1.69-.82,2.23.33,4.47.21,6.64-.23,2.67-.55,5.35-.67,8.05-.71,4.45-.06,8.89-.08,13.34-.13,1.27-.01,2.55,0,3.8-.14.59-.07,1.14-.49,1.72-.74,3.38.39,6.73.31,10.04-.56,3.48-.46,6.95-.93,10.43-1.38.67-.09,1.18-.44,1.63-.91.94.03,1.88.09,2.82.08.24,0,.48-.19.74-.31-1.52-.42-1.52-.41-3.5.29ZM28.68,423.27c0,4.12-.03,7.8,0,11.47.03,3.03.11,6.07.25,9.1.06,1.29,1.08,2.4,2.4,2.66,1.09.21,2.21.35,3.32.37,3.84.08,7.67.14,11.51.11,2.07-.02,4.19,0,6.21-.39,3.8-.72,7.63-.77,11.46-.85,1.92-.04,3.84-.02,5.75-.21,6.84-.68,13.7-1.12,20.56-1.54,5.1-.31,10.2-.79,15.29-1.2.32-.03.63-.11.95-.14,2.22-.23,4.44-.49,6.67-.66,5.1-.39,10.22-.56,15.3-1.13,3.82-.43,7.63-.77,11.46-1.01,4.31-.27,8.65-.28,12.92-.82,6.81-.87,13.6-1.96,20.35-3.18,8.01-1.44,15.94-3.33,23.97-4.7,7.71-1.32,15.33-3.14,23.12-4.03,3.65-.42,7.25-1.26,10.91-1.58,4.3-.39,8.58-.89,12.82-1.72,1.57-.3,3.14-.6,4.73-.8,5.08-.64,10.09-1.62,15.1-2.63,5.79-1.17,11.6-2.25,17.4-3.39,4.86-.96,9.74-1.82,14.55-2.96,4.35-1.03,8.72-1.96,13.11-2.82,5.01-.97,10.05-1.85,14.89-3.6,1.49-.54,3.08-.82,4.64-1.17,4.21-.94,8.39-1.95,12.5-3.29,3.49-1.14,7.09-1.87,10.74-2.39,3.16-.45,6.3-1.06,9.44-1.65,5.34-1.01,10.64-2.24,16.11-2.28.79,0,1.58-.2,2.37-.35,7.36-1.43,14.77-2.66,21.95-4.93,3.04-.96,6.19-1.57,9.31-2.24,3.75-.8,7.56-1.32,11.27-2.26,6.5-1.65,13.04-3.15,19.59-4.57,4.52-.98,8.98-2.28,13.51-3.23,6.72-1.42,13.34-3.24,19.98-4.99,4.94-1.3,9.81-2.86,14.91-3.49,2.05-.25,4.08-.75,6.09-1.26,3.72-.94,7.45-1.77,11.23-2.44,2.83-.5,5.63-1.16,8.4-1.93,4.77-1.32,9.49-2.81,14.25-4.17,3.53-1.01,7.06-2.02,10.71-2.58,3.16-.48,6.35-.83,9.45-1.58,3.27-.8,6.6-1.13,9.9-1.68,2.2-.37,4.45-.5,6.65-.84,4.43-.68,8.76-1.77,13.08-2.93,6.02-1.61,12.06-3.14,18.21-4.15,4.42-.73,8.8-1.58,13.16-2.61,4.04-.95,8.1-1.83,12.16-2.69,5.31-1.13,10.67-1.98,16.1-2.38,6.38-.46,12.74-1.08,19.11-1.62,3.19-.27,6.35-.67,9.48-1.36,2.18-.48,4.39-.83,6.6-1.18,2.84-.45,5.69-.85,8.53-1.25,5.85-.83,11.7-1.65,17.55-2.49,3.16-.46,6.31-.98,9.47-1.44,5.06-.75,10.1-1.65,15.18-2.16,5.72-.56,11.48-.75,17.23-1.11.95-.06,1.91-.15,2.85-.29,1.58-.23,3.14-.54,4.72-.78,2.53-.37,5.11-.51,7.59-1.1,4.84-1.16,9.75-1.71,14.67-2.31,3.96-.48,7.94-.89,11.92-1.15,7.02-.46,14.04-.79,21.07-1.19.8-.04,1.59-.18,2.39-.23,2.39-.15,4.78-.38,7.18-.4,4.16-.03,8.31.04,12.47.12,3.82.07,4.1-.17,3.95-3.99-.05-1.44-.21-2.87-.3-4.3-.16-2.39-.37-4.78-.44-7.18-.26-9.28.32-18.52,1.2-27.76.67-7,1.17-14.01,1.69-21.02.3-3.99-.02-7.98-.34-11.97-.16-1.91-.49-3.81-.48-5.72.04-6.25-.7-12.44-1.45-18.62-.62-5.1-.79-10.19-.68-15.31.03-1.6.17-3.19.33-4.78.23-2.22.53-4.44.82-6.66.51-3.96,1.11-7.91,1.54-11.88.46-4.29,1.22-8.56.97-12.89-.34-5.92-.02-11.81.47-17.71.16-1.9.21-3.83.12-5.74-.13-2.87-.34-5.75-.68-8.6-1.62-13.43-.91-26.81.77-40.16.66-5.26.95-10.49.42-15.77-.21-2.07-.5-4.13-.52-6.2-.03-3.83.04-7.67.2-11.5.13-3.04.2-6.07-.21-9.09-.15-1.11-.24-2.23-.3-3.34-.2-3.67-.37-7.34-.56-11.01-.12-2.23-.23-4.47-.38-6.7-.06-.81-.8-1.51-1.55-1.57-.64-.05-1.27-.1-1.91-.11-5.76-.05-11.51-.1-17.27-.11-2.4,0-4.81-.04-7.19.18-6.06.56-12.13.59-18.21.64-2.72.02-5.44.08-8.15.21-1.91.09-3.82.3-5.72.51-3.81.43-7.61.91-11.42,1.36-4.6.54-9.2,1.12-13.8,1.59-4.61.47-9.17,1.36-13.82,1.41-3.68.05-7.3.71-10.9,1.47-4.53.96-9.08,1.88-13.76,1.56-.47-.03-.95.07-1.42.14-7.57,1.23-15.13,2.48-22.69,3.7-9.3,1.5-18.61,2.95-27.91,4.45-7.25,1.17-14.48,2.48-21.75,3.56-5.84.86-11.62,2.25-17.56,2.36-.79.01-1.59.18-2.37.34-5,1.04-10,2.08-15,3.16-7.96,1.71-15.91,3.49-23.87,5.17-10.15,2.15-20.36,4.07-30.42,6.63-6.82,1.73-13.7,3.07-20.68,3.97-3.47.45-6.94,1.04-10.28,2.23-2.4.86-4.91,1.34-7.49,1.55-4.32.35-8.54,1.16-12.51,3.01-2.18,1.02-4.49,1.64-6.89,1.97-4.76.65-9.41,1.74-14.01,3.11-.91.27-1.88.39-2.82.57-4.39.87-8.75,1.8-13,3.25-1.95.66-4.02,1.03-6.05,1.4-2.2.4-4.43.61-6.64.96-2.68.43-5.35.89-8.07,1.12-2.22.18-4.5.45-6.6,1.14-2.9.96-5.86,1.53-8.83,2.12-1.88.37-3.72.89-5.59,1.32-1.87.42-3.75.8-5.62,1.21-2.34.52-4.67,1.03-6.96,1.77-2.42.79-4.91,1.39-7.41,1.91-4.38.91-8.79,1.64-13.1,2.87-3.08.88-6.25,1.36-9.42,1.72-5.57.64-11.03,1.76-16.4,3.36-6.13,1.83-12.32,3.39-18.66,4.28-6.65.93-13.26,2.03-19.67,4.09-1.67.54-3.36,1.03-5.06,1.45-3.41.85-6.81,1.72-10.25,2.41-4.54.92-9.1,1.67-13.74,2.01-2.06.15-4.16.43-6.15.98-8.01,2.21-16.18,3.73-24.24,5.73-1.55.38-3.11.75-4.68,1-5.68.92-11.32,1.95-16.89,3.43-3.54.94-7.2,1.31-10.92,1.28-3.51-.03-7,.43-10.4,1.47-1.68.51-3.41.89-5.14,1.16-4.11.64-8.16,1.53-12.2,2.5-2.48.59-5.01,1.15-7.55,1.28-4.19.23-8.23,1.09-12.21,2.28-3.54,1.06-7.13,1.73-10.84,1.73-2.08,0-4.13.26-6.19.57-4.1.61-8.18,1.57-12.37,1.39-4.03-.17-7.98.4-11.89,1.25-2.37.52-4.74.7-7.14.68-1.28,0-2.56-.03-3.84-.06-3.37-.08-6.69.07-10,.89-4.69,1.16-9.47,1.42-14.29,1.16-.8-.04-1.6-.07-2.4-.08-2.24-.04-4.46.04-6.68.49-1.55.32-3.17.34-4.77.35-7.99.06-15.98.27-23.96.85-1.59.12-3.19.13-4.79.2-1.28.05-2.57,0-3.83.2-3.65.57-7.32.61-11,.74-4.63.17-9.26.35-13.89.56-.79.04-1.58.21-2.35.4-.65.17-1.1.65-1.27,1.3-.16.61-.25,1.25-.3,1.88-.15,2.07-.18,4.16-.42,6.22-.48,3.98-.44,7.98-.52,11.97-.03,1.43.09,2.88.34,4.29.48,2.7.52,5.4.44,8.12-.17,5.91-.34,11.82-.5,17.73-.02.64-.08,1.3.07,1.91.65,2.52.37,5.09.48,7.63.1,2.55.11,5.12.45,7.64.59,4.31.52,8.6.06,12.9-.15,1.43-.41,2.85-.46,4.29-.2,5.43-.46,10.86-.45,16.29.02,7.83.23,15.66.4,23.49.04,1.92.29,3.83.34,5.74.07,2.71.13,5.43.06,8.14-.1,3.51-.31,7.02-.51,10.53-.11,1.91-.18,3.83-.46,5.72-.26,1.77-.26,3.47.15,5.22.64,2.68.62,5.4-.05,8.08-.68,2.7-.66,5.39-.13,8.08.38,1.91.56,3.8.16,5.71-.23,1.12-.14,2.22,0,3.33.15,1.27.26,2.55.27,3.82.07,5.59.13,11.18.15,16.77.02,6.71,0,13.42,0,20.14,0,3.68-.08,7.35-.04,11.03.04,3.19.05,6.4.35,9.57.33,3.52.35,7.01.09,10.53-.25,3.34-.36,6.7-.51,9.61ZM842.38,29.74c.06,1.91-.03,3.84.22,5.73.6,4.44.62,8.93,1.06,13.38.35,3.51.45,7.01.45,10.53,0,4.47-.03,8.95.08,13.42.04,1.91.2,3.85.64,5.69.61,2.53.76,5.03.58,7.6-.44,6.22-.91,12.43-1.17,18.66-.29,6.87-.76,13.72-1.54,20.55-.33,2.85-.67,5.72-.19,8.6.1.62.03,1.28.03,1.91-.04,5.75-.06,11.51-.12,17.26-.06,5.75-.11,11.5-.75,17.23-.41,3.65-.84,7.31-1,10.98-.41,9.58-.37,19.17-.3,28.76,0,.24-.21.85.6.66,0-.79-.01-1.59,0-2.38.08-5.27.2-10.54.24-15.82.03-4.16.52-8.29.72-12.43.18-3.67.39-7.34,1.01-10.97.45-2.68.79-5.4.55-8.11-.39-4.48-.1-8.94.37-13.39.33-3.18.64-6.36.99-9.53.82-7.46,1.63-14.93,2.49-22.39.66-5.74.61-11.49.12-17.23-.29-3.35-.57-6.69-.53-10.05.09-7.21-.96-14.34-1.35-21.52,0-.16-.03-.32-.07-.47-.52-2.36-.48-4.76-.5-7.16-.03-3.2-.09-6.39-.17-9.59-.03-1.12,0-2.26-.24-3.34-.6-2.84-.66-5.71-.69-8.59-.03-2.72-.26-5.4-1.54-8Zm-25.05,299.19c3.92.19,7.5-.95,10.93-2.67.11-.05.16-.25.2-.39.1-.32-.07-.6-.46-.62-.79-.03-1.64-.16-2.35.08-3.03,1.03-6.23,1.02-9.31,1.69-.61.13-1.22.28-1.82.44-.4.11-.49.38-.26.74.08.12.18.29.28.31.93.15,1.86.28,2.79.41Zm25.79-101.58c.11-2.36-.22-4.2-1.25-5.88-.06-.1-.24-.18-.36-.17-.15,0-.35.07-.43.18-.17.25-.39.54-.4.81-.04,3.01-.04,6.03-.03,9.04,0,.3.15.61.29.89.05.11.26.16.41.19.12.03.34.02.37-.04.79-1.74,1.29-3.55,1.39-5.04Zm-.43,13.43c-.09-.11-.16-.26-.28-.31-.32-.15-.61-.05-.7.29-.06.26-.04.59.07.82.05.09.55.1.67-.02.17-.18.16-.51.23-.77Z" style="fill: #c62c7b;"/>
  <path d="m283.25,180.48c3.81-1.22,7.53-2,11.31-2.68,7.7-1.4,15.36-2.99,23-4.64,2.18-.47,4.45-.28,6.59-1.09.78-.3,1.55.26,2.09.88.31.35.62.78.73,1.22.65,2.52,1.82,4.72,3.45,6.75.77.95,1.23,2.26,1.5,3.47.35,1.59.98,3.03,1.68,4.46,1.33,2.73,2.66,5.46,3.96,8.2,1.03,2.17,2.02,4.33,3.7,6.12.63.67,1.04,1.61,1.39,2.48,1.06,2.66,2.02,5.37,3.06,8.04.4,1.04.89,2.05,1.38,3.06,6.79,13.92,13.59,27.85,20.39,41.77.42.86.89,1.69,1.4,2.5.27.44.76.54,1.25.42.53-.14.8-.62.78-1.07-.2-4.04.77-7.94,1.35-11.88,2.28-15.48,5.21-30.85,8.05-46.24,1.79-9.74,3.42-19.5,5.12-29.25.14-.79.26-1.58.44-2.36.88-3.88,1.7-7.78,2.01-11.76.07-.9.67-1.57,1.49-1.6,1.3-.03,2.49-.39,3.74-.72,8.8-2.31,17.61-4.6,26.45-6.76,3.72-.91,7.51-1.49,11.28-2.2.31-.06.64-.09.95-.07.31.02.66.05.92.2.41.23.84.51.83,1.06,0,.63.03,1.28-.11,1.89-1.04,4.67-2.11,9.33-3.17,13.99-.11.47-.23.93-.26,1.41-.62,9.25-2.28,18.38-3.25,27.59-.69,6.51-1.9,12.95-3.1,19.39-1.47,7.85-2.91,15.7-4.37,23.55-.26,1.41-.58,2.82-.81,4.23-.23,1.42-.56,2.85-.52,4.27.06,2.13-.26,4.12-1.19,6.03-.85,1.75-1.19,3.63-1.34,5.56-.25,3.19-.49,6.38-1.47,9.45-.1.3-.16.62-.18.94-.54,7.99-2.38,15.77-3.76,23.63-1.79,10.22-3.7,20.43-5.44,30.66-.72,4.24-1.64,8.46-1.96,12.76-.08,1.11-.75,1.79-1.69,2.09-2.88.91-5.77,1.85-8.71,2.56-7.45,1.81-14.92,3.52-22.39,5.22-2.49.56-5,1.01-7.52,1.42-1.02.16-1.98-.32-2.41-1.24-1.76-3.75-4.06-7.24-5.36-11.22-.69-2.13-1.7-4.13-2.81-6.08-1.5-2.64-2.83-5.36-3.96-8.19-.89-2.22-2.01-4.34-3.03-6.5-1.44-3.02-3.07-5.95-4.27-9.1-.39-1.01-1.16-1.9-1.85-2.77-1.59-2.02-3.27-4.05-4.12-6.43-1.08-3.04-3.04-5.58-4.29-8.51-1.26-2.94-2.64-5.82-3.97-8.72-1.33-2.91-2.65-5.81-3.98-8.72-1.33-2.91-2.65-5.81-3.97-8.72-.53-1.16-1.06-2.33-1.61-3.48-.53-1.11-1.23-1.71-1.63-1.45-.75.48-.91,1.27-1.02,2.05-.71,5.06-1.47,10.12-2.04,15.19-.63,5.56-1.69,11.05-2.64,16.55-1.42,8.18-2.85,16.36-4.29,24.54-1.41,8.02-2.82,16.04-4.24,24.06-.75,4.24-1.66,8.47-2.25,12.73-.44,3.19-1.43,6.21-2.14,9.32-.19.84-.86,1.28-1.71,1.45-4.07.82-8.12,1.7-12.2,2.49-5.96,1.15-11.92,2.25-17.89,3.37-.63.12-1.25.38-1.87.38-3.08,0-6,.73-8.86,1.78-1.09.4-2.34-.63-2.21-1.81.16-1.42.32-2.87.71-4.24.31-1.09.48-2.16.61-3.27.16-1.42.58-2.8.75-4.22.17-1.42.13-2.87.27-4.3.23-2.38.37-4.78,1.38-7.02.25-.56.27-1.24.36-1.87,1.48-10.44,3.34-20.81,5.42-31.14,1.67-8.3,3.03-16.65,4.37-25.01,1.34-8.36,2.77-16.7,4.17-25.04.55-3.31,1.1-6.61,1.65-9.92.08-.47.1-.97.26-1.41,1.2-3.35,1.38-6.85,1.74-10.35.46-4.44,1.39-8.83,2.12-13.24.52-3.15,1.01-6.31,1.58-9.45.4-2.2.96-4.36,1.35-6.56.54-2.99,1.22-5.93,2.3-8.78.22-.58.26-1.25.3-1.89.05-.8.03-1.6.03-2.4,0-2.07-.31-4.21.08-6.21.6-3.11.72-6.34,2.13-9.63Zm94.04,83.22c.05.31.08.62.16.92.04.14.17.36.28.37.27.03.75.06.81-.06.37-.87.76-1.75.94-2.67.48-2.5.86-5.02,1.28-7.53.24-1.45.72-2.71,2-3.66.59-.44.96-1.25,1.27-1.96.45-1.02.89-2.07,1.08-3.16.69-3.79,2.02-7.37,3.47-10.9.63-1.53.7-3.04.32-4.66-.32-1.38-.64-2.9-.38-4.24.65-3.32.62-6.65.74-9.99.03-.79.22-1.58.39-2.35.38-1.71.84-3.4,1.18-5.12.25-1.24.38-2.51.5-3.78.02-.21-.3-.61-.5-.63-.24-.03-.63.18-.76.41-.24.39-.39.86-.5,1.32-.65,2.79-1.26,5.59-1.92,8.38-.18.76-.32,1.67-.81,2.2-.95,1.04-1.05,2.23-1.28,3.49-.68,3.76-1.54,7.48-2.26,11.24-1.29,6.72-3,13.36-4.01,20.14-.61,4.1-1.34,8.17-2.02,12.26Zm-78.78,37.57c-.52-5.98.08-11.03,1.62-15.96.76-2.44,1.63-4.84,2.43-7.27.15-.44.22-.94.2-1.4-.01-.23-.3-.47-.51-.64-.09-.07-.38-.04-.45.05-.39.5-.85.99-1.07,1.57-.97,2.53-2.06,5.05-2.76,7.66-1.75,6.46-4,12.81-4.61,19.55-.81,2.8-.85,5.67-.77,8.56.07,2.72-.09,5.43-.59,8.11-.9,4.88-1.35,9.81-1.67,14.75-.04.61.16,1.24.3,1.84.09.4.38.51.76.34.13-.06.31-.11.38-.22.16-.26.36-.55.37-.84.26-5.28,1.23-10.47,1.84-15.7.32-2.76.98-5.37,2.4-7.71,1.82-3.01,2.22-6.29,2.26-9.68.01-1.28-.09-2.55-.11-3Zm3.33-37.23c.36,1.68.31,3.48,1.2,5.05.12.22.5.41.75.4.27-.01.63-.22.76-.45.23-.4.32-.88.46-1.34,1.24-4.12,1.94-8.35,2.73-12.57.09-.46.04-.95.02-1.42,0-.15-.08-.31-.16-.44-.07-.12-.19-.32-.27-.31-.29.02-.74.03-.83.2-1.59,2.91-2.39,6.2-4.27,8.99-.32.48-.27,1.22-.4,1.89Zm89.57-70.99c0,.52-.05.7,0,.83.11.27.23.64.44.73.23.1.72.02.85-.16.77-1.01,1.3-2.24,2.21-3.09,2.24-2.1,2.28-4.4,1.03-6.96-.21-.43-.36-.89-.64-1.27-.16-.23-.51-.46-.77-.45-.26.01-.64.26-.75.5-1.5,3.24-1.7,6.78-2.39,9.85Zm3.78-19.68c-.14.04-.34.03-.43.13-.64.67-.7,2.13-.11,2.56.09.06.34,0,.45-.1.85-.75,1.03-1.69.47-2.44-.07-.09-.25-.11-.38-.16Zm-103.71,171.94c-.07-.41-.1-.71-.18-1-.04-.14-.17-.38-.23-.38-.28.04-.63.07-.8.25-.58.61-.54,1.4-.39,2.15.04.22.35.45.58.57.34.16.61,0,.71-.38.12-.44.21-.88.3-1.22Z" style="fill: #c62c7b;"/>
  <path d="m721.79,162.66c.24-.65.51-1.21.65-1.81,1.12-4.82,2.1-9.66,2.6-14.59.36-3.5.69-7,1.17-10.47.28-2.05.76-4.08,1.26-6.09.7-2.8,1.22-5.6,1.4-8.49.22-3.67.83-7.29,1.63-10.88.69-3.11,1.89-6.11,2.15-9.32,1.19-2.64,1.79-5.43,2.16-8.28.12-.92,1.1-1.63,2.14-1.53,3.21.31,6.36-.09,9.52-.62,1.41-.24,2.85-.44,4.28-.48,4.48-.12,8.94-.1,13.39.66,4.45.77,8.92.55,13.37.03,2.87-.33,4.02,1.37,3.34,3.66-.56,1.86-.89,3.71-.98,5.63-.03.64-.09,1.28-.22,1.9-1.34,6.57-2.7,13.13-4.05,19.7-.23,1.09-.46,2.19-.66,3.29-.11.63-.32,1.29-.22,1.89.4,2.45-.34,4.76-.72,7.11-.23,1.42-.54,2.82-.84,4.23-.16.78-.23,1.63-.58,2.31-1.44,2.77-1.61,5.82-1.97,8.82-.25,2.07-.57,4.1-1.13,6.11-.34,1.23-.52,2.5-.79,3.74-.27,1.24-.57,2.48-.84,3.73-.24,1.09-.46,2.18-.66,3.27-.17.94-.21,1.92-.45,2.83-.88,3.26-1.17,6.58-1.27,9.95-.05,1.91-.25,3.84-.68,5.7-.9,3.89-1.38,7.85-2.13,11.77-.18.94-.29,1.93-.69,2.78-1.03,2.23-1.18,4.6-1.43,6.99-.35,3.33-.75,6.65-1.54,9.93-.82,3.41-1.28,6.9-1.87,10.37-.43,2.52-.74,5.06-1.24,7.56-.37,1.88-.69,3.76-.76,5.68-.08,2.42-.86,4.7-1.56,6.99-.42,1.37-.74,2.77-1.06,4.16-.39,1.71-.84,3.42-1.09,5.15-.36,2.52-.28,5.09-1.23,7.52-.22.56-.1,1.26-.11,1.9-.01.64.06,1.28.01,1.92-.12,1.6-.36,3.27-1.33,4.52-1.05,1.36-2.91,1.15-4.44,1.41-1.24.21-2.56.13-3.82,0-2.09-.21-4.13,0-6.21.14-3.67.26-7.29.8-10.91,1.41-.32.05-.63.14-.95.16-2.39.14-4.8.09-7.16.44-2.21.33-4.4.79-6.64.82-1.28.02-2.52.14-3.77.51-1.38.41-2.7-.77-2.46-2.08,1.07-5.81,1.66-11.68,2.58-17.51.55-3.46,1.53-6.85,2.39-10.25.51-2.01,1.24-3.96,1.34-6.07.03-.63.14-1.29.39-1.86,1.83-4.18,2.14-8.64,2.45-13.11.07-.96.1-1.92.16-2.87.31-4.63.66-9.24,2.29-13.65.39-1.06.55-2.18.26-3.29-.07-.26-.37-.57-.63-.65-.45-.13-.95-.14-1.42-.11-4.93.4-9.87.8-14.8,1.23-.79.07-1.59.2-2.37.37-1.89.4-3.82.55-5.72.33-2.43-.28-4.77.04-7.14.45-1.41.24-2.85.53-4.27.52-2.43-.03-4.74.42-7.07,1.05-3.54.97-7.11,1.83-10.79,2.15-1.11.1-2.21.36-3.28.68-.39.12-.79.57-.97.96-.26.57-.34,1.22-.49,1.84-1.23,5.13-1.87,10.36-2.84,15.54-.79,4.24-1.61,8.46-2.39,12.7-.2,1.1-.4,2.2-.49,3.31-.57,7.82-1.77,15.54-3.12,23.25-.06.31-.08.64-.17.94-1.06,3.68-1.97,7.4-2.75,11.14-.19.9-.75,1.35-1.6,1.52-5.95,1.19-11.72,3.17-17.73,4.07-4.26.63-8.45,1.75-12.81,1.58-1.93-.07-3.8.48-5.63,1.07-1.24.4-2.48.71-3.74.22-1.12-.44-2.21.15-3.31.02-.51-.06-1.25-.84-1.16-1.35.32-1.87.41-3.85,1.09-5.59.95-2.43.98-4.99,1.54-7.46.74-3.26,1.14-6.6,1.73-9.9.93-5.19,1.46-10.44,2.14-15.66.57-4.43,1.04-8.89,2.48-13.16.05-.15.13-.3.14-.46.56-5.25,2.35-10.25,3.01-15.47.44-3.48.7-6.99.89-10.5.13-2.27.46-4.47,1.43-6.5,1.06-2.22,1.52-4.55,1.54-6.96.02-3.22.6-6.34,1.27-9.47.9-4.21,1.76-8.44,2.5-12.68.49-2.82.93-5.68,1.06-8.54.16-3.38.82-6.65,1.63-9.9.73-2.94,1.58-5.86,2.29-8.8.38-1.55.69-3.12.85-4.7.21-2.07.42-4.12.94-6.14.88-3.42,1.08-6.94,1.14-10.46.07-4.49,1.08-8.88,1.33-13.34,0-.16.03-.32.09-.47.84-2.41,1.46-4.87,2.03-7.35.23-1.01.92-1.63,1.99-1.81.94-.16,1.87-.4,2.81-.59,3.6-.74,7.18-1.46,10.89-1.56,2.86-.07,5.73-.5,8.57-.94,2.68-.41,5.31-1.1,7.99-1.57,2.51-.43,4.95-1.19,7.55-1.26,1.73-.04,3.44-.61,5.17-.85.86-.12,1.83,1,1.74,1.91-.06.63-.11,1.28-.31,1.88-.82,2.44-1.11,4.98-1.54,7.49-.3,1.73-.52,3.47-.82,5.2-.39,2.2-.75,4.41-1.24,6.59-.46,2.03-.91,4.04-.94,6.14-.01.79-.23,1.58-.38,2.36-.15.78-.45,1.56-.47,2.34-.11,4.99-1.34,9.8-2.32,14.64-1.33,6.57-2.68,13.14-3.44,19.81-.07.63-.28,1.25-.4,1.87-.18.98.29,1.64,1.15,1.65.64,0,1.28,0,1.92,0,1.6-.02,3.2-.08,4.79-.08,2.08,0,4.17.1,6.11-.86,6.59-1.24,13.16-2.55,19.9-2.87,6.22-.3,12.45-.67,18.61-1.64,1.88-.3,3.82-.07,5.77-.6Zm-87.73,90.41c.19,1.9.37,3.8.58,5.7.08.79.29,1.58.3,2.37.04,3.21.92,6.29,1.28,9.46.04.38.32.51.71.36.14-.05.3-.1.38-.21.86-1.22.93-2.69,1.2-4.08.5-2.5.83-5.04,1.39-7.53.8-3.58,1.65-7.15,2.14-10.79.15-1.1.36-2.22.73-3.26.88-2.43,1.07-4.98,1.43-7.5.2-1.42.33-2.85.51-4.27.25-1.9.49-3.79.79-5.68.8-5.05.43-10.21,1.45-15.24.07-.33-.35-.81-.64-1.13-.27-.29-.98.1-1.09.58-.25,1.08-.4,2.19-.71,3.26-.94,3.23-1.55,6.51-1.9,9.85-.18,1.74-.52,3.47-.92,5.18-.65,2.82-1.83,5.4-3.29,7.91-2.7,4.61-4.32,9.58-4.33,15.03Zm101.18-104.31c.09,1.9.48,4.4,1.58,6.75.06.13.28.32.35.29.28-.11.61-.25.76-.48.25-.39.44-.85.54-1.3.37-1.72.68-3.45,1.06-5.16.14-.61.26-1.35.66-1.76,1.57-1.61,1.82-3.67,2.2-5.7,1.05-5.51,1.42-11.09,1.53-16.68.1-5.12.33-10.21,1.32-15.25.22-1.09.4-2.2.54-3.3.03-.28-.1-.66-.29-.85-.18-.17-.73-.26-.8-.16-.36.51-.75,1.07-.88,1.66-.43,2.03-.89,4.07-1.1,6.12-.38,3.73-1.58,7.18-3.35,10.42-1.83,3.33-2.54,6.86-2.48,10.6,0,.48-.1.98.02,1.43.55,2.13-.09,4.09-.65,6.1-.61,2.15-1.05,4.35-1.01,7.27Zm-22.99,24.86c-1.12.17-2.4.3-3.64.57-1.56.34-3.08.82-4.64,1.18-2.95.69-5.88,1.63-8.87,1.96-4.91.55-9.82,1.28-14.79,1.36-3.35.06-6.69.44-10.04.68-.16.01-.31.08-.47.1-.48.08-.95.74-.7,1,.19.21.42.53.64.54,2.55.08,5.1.13,7.66.14,2.09,0,4.15.1,6.15.8,1.05.37,2.16.57,3.22.91,3.47,1.08,6.92.96,10.39,0,2.94-.81,5.73-1.96,8.45-3.32,2.42-1.21,4.87-2.4,7.29-3.62.42-.21.82-.5,1.12-.85.15-.18.1-.57.08-.85,0-.11-.18-.26-.3-.29-.46-.12-.93-.2-1.55-.32Zm-75.66,101.41c-.16.03-.35,0-.46.09-.79.63-.95,1.19-.54,2.02.06.13.22.24.36.3.36.16.62.05.8-.26.32-.57.45-1.17.16-1.79-.06-.14-.2-.24-.31-.36Zm83.36-101.07c-.34-.18-.71-.53-1.09-.54-.37-.01-.79.26-1.11.51-.09.07,0,.6.16.73.68.56,1.45.46,1.93-.19.07-.1.05-.26.1-.51Zm16.72-13.2c-.1-.28-.16-.6-.33-.83-.19-.25-.92.02-1.09.42-.12.27-.21.61-.15.88.05.25.28.59.49.64.22.06.59-.1.76-.29.19-.2.22-.55.32-.83Zm-89.69,46.06c.25-.15.62-.25.73-.47.34-.67.07-1.42-.52-1.5-.22-.03-.65.25-.68.43-.07.43.03.89.11,1.32.02.09.23.14.36.21Zm99.07-105.53c-.16-.37-.35-.39-.53-.03-.02.04.15.25.24.26.09,0,.19-.15.29-.23Z" style="fill: #c62c7b;"/>
  <path d="m199.57,270.64c.57,2.28,1.34,4.03,2.26,5.71,1.62,2.96,2.9,6.04,3.56,9.37.09.47.22.93.38,1.38,1.98,5.56,3.98,11.12,5.97,16.68.59,1.65,1.25,3.29,1.71,4.98.55,2,1.29,3.93,1.97,5.89,1.61,4.68,3.46,9.27,5.23,13.89.74,1.93,1.19,3.97,1.85,5.94.6,1.81,1.09,3.71,2,5.37,3.04,5.51,4.8,11.47,6.64,17.42.23.76.45,1.54.82,2.22,1.17,2.12,2.05,4.3,2.28,6.75.08.89.82,1.71,1.1,2.61.44,1.45-.63,2.99-2.23,3-.94,0-1.88-.43-2.82-.43-2.55,0-5.08-.03-7.6.72-2.13.63-4.4.76-6.59,1.16-1.73.31-3.46.61-5.15,1.07-3.86,1.06-7.75,1.82-11.77,2.04-3.5.19-6.98.73-10.47,1.11-.16.02-.32.01-.48.02-1.05.05-2.29-.77-2.58-1.79-.95-3.38-1.92-6.75-2.78-10.15-.94-3.73-2.08-7.37-3.7-10.86-1.76-3.77-3.17-7.67-4.21-11.7-.24-.93-.6-1.82-.89-2.73-1.19-3.63-2.76-7.14-3.37-10.95-.15-.93-.5-1.86-.88-2.73-2.14-4.83-3.61-9.89-5.17-14.92-.24-.76-.56-1.5-.85-2.24-.23-.57-1.12-.68-1.57-.19-.32.35-.67.69-.95,1.07-3.38,4.45-6.72,8.94-10.15,13.36-2.06,2.64-4.05,5.4-6.47,7.68-2.49,2.35-3.43,5.3-4.4,8.32-.29.91-.38,1.88-.56,2.82-.95,4.86-1.99,9.7-2.82,14.58-.64,3.78-1.05,7.59-1.46,11.4-.31,2.85-1.02,5.65-1.09,8.55-.03,1.24-.59,2.47-.95,3.69-.3,1.02-1.1,1.72-2.07,1.75-4.34.13-8.55,1.08-12.8,1.81-2.71.47-5.43.36-8.13.11-3.82-.36-7.63-.59-11.48-.4-2.86.14-5.75-.1-8.62-.18-.16,0-.32-.05-.47-.06-1.45-.14-2.66-1.69-2.28-3.07,1.69-6.17,2.49-12.5,3.4-18.81.86-6,1.76-12,3.4-17.87.51-1.84.72-3.76,1.12-5.63,1.22-5.79,1.79-11.66,2.3-17.54.76-8.76,2.03-17.42,4.39-25.93,2.13-7.7,3.47-15.58,4.82-23.45.27-1.57.36-3.19.3-4.78-.14-3.57.65-6.98,1.45-10.4.44-1.86.97-3.71,1.52-5.54.6-2,.91-4.02,1.07-6.11.19-2.38.69-4.73,1.16-7.08.71-3.6,1.38-7.19,1.66-10.87.45-6.06,1.73-12,3.5-17.82.42-1.38.86-2.73.66-4.22-.06-.46.08-.95.16-1.42.23-1.45,1.52-2.61,2.96-2.68.16,0,.33-.05.48,0,3.68,1.02,7.29.01,10.89-.51,2.38-.35,4.75-.6,7.15-.57,2.08.03,4.16.13,6.23.09,3.99-.07,7.98-.18,11.97-.35.78-.03,1.53-.44,2.31-.57.78-.12,1.58-.18,2.36-.14,1.03.05,2.26,1.37,2.02,2.31-.61,2.3-.55,4.74-1.43,6.98-.76,1.95-1.05,3.99-1.27,6.07-.59,5.4-1.27,10.78-2.03,16.16-.27,1.89-.83,3.74-1.32,5.59-.89,3.4-1.73,6.81-2.74,10.17-.97,3.21-1.5,6.53-2.36,9.76-.24.91-.32,1.91-.24,2.84.18,2.26-.03,4.44-.52,6.65-.27,1.22-.15,2.54-.06,3.81.03.33.59.7.98.9.22.11.71.01.89-.17.87-.92,1.8-1.82,2.49-2.87,3.36-5.07,7.21-9.76,11.16-14.38,1.04-1.21,2.13-2.38,3.18-3.59.63-.72,1.35-1.4,1.79-2.23,1.66-3.14,4.04-5.75,6.16-8.54,3.96-5.22,7.98-10.39,11.98-15.58,2.24-2.91,4.52-5.8,6.76-8.71,1.56-2.02,3.29-3.92,4.34-6.29.19-.43.53-.8.83-1.17,3.19-3.99,6.38-7.98,9.58-11.96,1.16-1.44,2.68-2.29,4.54-2.33,5.77-.12,11.42-1.33,17.1-2.14,2.99-.43,5.94-1.27,8.82-2.2,3.66-1.18,7.35-2.07,11.18-2.34.79-.06,1.62-.14,2.34-.43,1.56-.62,3.16-.32,4.74-.42.59-.03,1.2.88.95,1.37-.73,1.41-1.37,2.92-2.63,3.94-2.66,2.16-4.31,5.11-6.3,7.79-.57.77-.99,1.66-1.62,2.36-4.75,5.23-8.44,11.22-12.45,16.98-.45.66-.8,1.41-1.32,1.99-2.69,2.97-4.83,6.35-7.29,9.5-4.63,5.92-8.93,12.07-13.08,18.34-1.15,1.74-2.49,3.28-3.94,4.78-2.65,2.75-5.13,5.64-7.03,9.03-1.47,2.63-3.44,4.99-5.21,7.45-.65.9-1.38,1.74-2.18,2.74Zm6.24-49.25c-.1-.13-.17-.32-.3-.36-.28-.1-.67-.27-.86-.15-.53.33-1.06.72-1.47,1.19-2.37,2.8-4.75,5.59-7.05,8.45-1.29,1.61-2.39,3.38-4.22,4.5-.52.32-.92.88-1.31,1.39-1.56,2.02-3.1,4.05-4.65,6.08-1.75,2.28-3.43,4.61-5.26,6.82-5.41,6.52-10.27,13.44-15.18,20.32-.17.23-.26.6-.21.88.04.26.29.51.5.72.09.09.33.13.46.08.28-.11.61-.23.79-.45,4.02-5.02,8.83-9.17,13.97-13,4.15-3.09,7.54-6.92,9.45-11.82,1.29-3.33,3.26-6.21,5.41-8.98,3.33-4.29,6.13-8.95,9.13-13.47.34-.52.54-1.14.78-1.73.06-.14,0-.32,0-.48Zm-8.54,72.93c-.14.01-.36-.02-.39.05-.14.27-.33.58-.31.86.21,2.45,1.24,4.61,2.52,6.64,1.39,2.21,2.17,4.57,2.53,7.14.64,4.58,1.67,9.09,2.6,13.61.63,3.06,1.82,5.75,3.69,8.19.48.63.96,1.27,1.45,1.9,2.94,3.77,5.86,7.56,7.4,12.19.19.58.62,1.1,1.03,1.57.13.15.55.1.82.06.11-.01.28-.25.27-.37-.03-.46-.05-.95-.2-1.38-1.34-3.94-3.23-7.63-5.23-11.26-1.22-2.24-2.52-4.43-3.67-6.71-2.45-4.86-4.43-9.88-4.75-15.4-.02-.32-.05-.64-.1-.95-.37-2.39-1.02-4.67-2.42-6.68-1.92-2.76-3.57-5.66-4.52-8.92-.07-.23-.47-.37-.72-.54Zm-73.79,77.6c.12.47.18.78.28,1.07.04.13.19.33.26.32.29-.05.77-.12.81-.28.56-2.15,1.17-4.29,1.53-6.47.74-4.4,1.63-8.77,2.76-13.09,1.01-3.87,1.28-7.85,1.89-11.78.06-.36-.32-.83-.58-1.18-.24-.32-.9.02-1.1.54-.28.74-.6,1.47-.78,2.24-.65,2.79-1.26,5.59-1.85,8.4-.23,1.11-.49,2.23-1.22,3.08-1.17,1.35-1.18,2.87-1.01,4.5.28,2.7.31,5.38-.43,8.06-.42,1.52-.41,3.15-.57,4.58Zm85.83-155.47c.15-.02.36.03.44-.05,1.51-1.4,3.1-2.68,4.85-3.79,1.24-.79,1.82-2.18,2.1-3.61.08-.39-.13-1.03-.44-1.25-.26-.19-1.01-.12-1.25.13-1.68,1.67-3.33,3.39-4.91,5.17-.62.7-1.06,1.57-1.49,2.41-.09.18.15.56.29.83.05.1.26.12.4.18Zm12.57,137.82c.17-.02.35,0,.48-.08.13-.07.27-.23.3-.36.16-1.01-.07-1.89-1.02-2.4-.34-.18-.66,0-.75.39-.24,1.05.17,1.85,1,2.46Zm-2.75-150.31c.52-.18,1-1.01.76-1.47-.12-.24-.61-.55-.67-.51-.34.28-.67.62-.84,1.01-.08.19.17.55.33.8.06.1.27.11.42.16Zm5.74,155.53c-.15.05-.33.06-.44.15-.63.53-.42,1.64.4,1.85.21.06.67-.21.74-.42.21-.57-.21-1.38-.7-1.58Zm-92.79-27.47c-.11-.26-.15-.58-.33-.76-.24-.22-.9.21-.91.63,0,.24.16.56.35.71.34.26.82-.08.89-.59Z" style="fill: #c62c7b;"/>
  <path d="m491.05,230.84c.23,4.32.11,8.62-.49,12.91-.49,3.55-.19,6.97,1.28,10.31.89,2.04,1.53,4.21,2.05,6.38.73,3.05,2.52,5.49,4.23,7.99.34.5.93.87,1.48,1.15,1.42.73,2.9,1.34,4.33,2.05,2.63,1.31,5.37,1.98,8.33,1.73,1.27-.11,2.58-.19,3.83-.03,4.67.62,8.85-1.01,12.89-2.89,4.05-1.89,7.92-4.14,11.86-6.25,1.55-.84,2.97-1.86,4.2-3.15.77-.8,1.61-1.58,2.54-2.18,3.78-2.42,7.1-5.42,10.58-8.2,1.11-.89,2.07-1.97,3.12-2.94.48-.45,1.77-.37,2.23.11.33.34.66.69.95,1.06.7.87,1.23,1.95,2.09,2.61,3.28,2.54,4.89,6.26,6.82,9.7,1.72,3.07,3.32,6.18,5.52,8.94.2.25.34.54.49.81.32.56.23,1.82-.24,2.27-1.49,1.43-3,2.84-4.52,4.24-.58.54-1.3.97-1.77,1.59-.99,1.3-2.28,2.22-3.55,3.19-1.14.87-2.22,1.83-3.37,2.7-1.27.96-2.53,1.96-3.89,2.78-.84.51-1.55,1.09-2.16,1.84-3.12,3.83-7.31,6.09-11.76,7.98-.58.25-1.3.34-1.74.74-2.15,1.97-4.96,2.87-7.27,4.59-1.56,1.16-3.31,1.95-5.18,2.39-2.06.49-3.9,1.39-5.67,2.5-1.08.68-2.22,1.24-3.49,1.53-5.91,1.35-11.78,2.88-17.72,4.07-5.96,1.19-12.01,1.74-18.1,1.51-1.6-.06-3.19-.11-4.79-.12-5.23-.05-10.06-1.38-14.55-4.14-4.92-3.03-9.42-6.58-13.73-10.4-.36-.32-.7-.66-1.03-1.01-2.78-2.93-4.45-6.61-6.65-9.93-1.31-1.97-2.06-4.3-2.61-6.66-.61-2.64-1.4-5.24-2.1-7.86-.54-2.01-1.01-4.02-1.12-6.11-.05-.95-.25-1.91-.54-2.81-.64-2.01-.82-4.06-.82-6.15,0-2.72-.06-5.43-.09-8.15-.03-2.88-.03-5.75.73-8.57.12-.46.22-.95.2-1.42-.17-4.07,1.2-7.85,2.13-11.72.37-1.56.66-3.02.16-4.68-.61-2.01-.3-4.1.36-6.13,1.32-4.1,2.6-8.22,3.9-12.33.34-1.07.75-2.11,1.04-3.19.61-2.31.97-4.71,1.81-6.93.78-2.08,1.78-4.08,2.58-6.17,1.08-2.83,2.3-5.62,3.7-8.3,2.21-4.25,4.55-8.43,6.94-12.58,1.43-2.49,3.07-4.8,5.39-6.66,1.46-1.17,2.69-2.78,3.62-4.42,3.13-5.56,7.68-9.75,12.62-13.6,3.52-2.75,7.23-5.28,10.61-8.2,2.44-2.1,4.98-3.99,7.7-5.66,4.36-2.68,8.89-4.96,13.82-6.5,3.32-1.04,6.64-2.27,9.62-4.2,2.05-1.33,4.26-2.17,6.8-1.72.44.08.98-.02,1.38-.22,4.54-2.29,9.51-2.64,14.43-3.12,6.4-.62,12.76-.03,19.11.74,1.93.23,3.73.87,5.49,1.63,5.32,2.31,10.23,5.25,14.23,9.53,2.4,2.57,4.83,5.11,7.24,7.66.44.46.78,1.07,1.3,1.39,2.3,1.42,3.24,3.89,4.72,5.94.57.79.26,2.57-.61,3.05-2.02,1.11-3.35,2.92-4.95,4.47-2.17,2.12-4.49,4.08-7.13,5.64-1.1.65-2.17,1.35-3.28,1.98-3.36,1.91-6.34,4.3-8.98,7.12-1.42,1.51-2.79,3.04-4.67,4.07-.94.52-1.62,1.5-2.46,2.24-.65.58-2.08.37-2.61-.33-.19-.25-.43-.49-.56-.78-1.26-2.87-3.62-4.83-5.8-6.93-.79-.76-1.8-1.31-2.75-1.9-.81-.5-1.78-.8-2.5-1.4-2.59-2.17-5.67-2.83-8.89-3.06-1.59-.11-3.18-.12-4.75-.47-.74-.17-1.6-.04-2.36.13-1.71.39-3.39.89-5.09,1.33-1.39.36-2.78.95-4.18.97-2.07.03-3.67.96-5.27,2.02-.8.53-1.57,1.1-2.31,1.71-2.46,2.03-4.97,4.02-7.32,6.16-1.41,1.28-2.65,2.77-3.83,4.27-3.14,4.04-5.81,8.41-8.67,12.64-3.33,4.93-5.57,10.4-8.23,15.66-.99,1.96-1.54,4.2-1.99,6.38-.85,4.06-1.51,8.16-2.21,12.26-.13.78-.12,1.59-.13,2.38-.01,3.03,0,6.07,0,9.1Zm-9.21.84c-.09-.66-.14-1.14-.22-1.61-.03-.15-.14-.29-.25-.4-.09-.09-.23-.17-.36-.2-.37-.1-.7.03-.76.4-.38,2.18-.54,4.43-1.15,6.54-.62,2.13-1.66,4.14-2.55,6.18-.67,1.53-.71,3.11-.28,4.68.29,1.07.68,2.15,1.21,3.11,1.82,3.27,2.59,6.83,3.06,10.49.14,1.09.34,2.23.77,3.23,2.48,5.78,6.26,10.7,10.38,15.39.95,1.09,2.16,1.91,3.57,2.31.41.11.91-.05,1.37-.13.11-.02.23-.2.26-.33.04-.15.05-.39-.04-.46-1.35-1.1-3.02-1.69-4.25-3.01-4-4.34-6.61-9.31-7.5-15.19-.85-5.67-1.76-11.35-3.11-16.92-.88-3.63-1-7.25-.54-10.92.14-1.11.28-2.21.4-3.14Zm55.99-83.09c.96,0,1.92.07,2.87-.02.78-.08,1.55-.3,2.29-.56.18-.06.35-.53.31-.78-.04-.27-.27-.62-.51-.72-.42-.17-.92-.27-1.37-.24-2.72.2-5.38.05-8.05-.72-2.47-.71-5.09-.53-7.62-.19-1.4.18-2.86.62-4.07,1.33-3.45,2-7.03,3.82-9.99,6.57-1.18,1.09-2.43,2.04-3.93,2.69-1.65.72-2.88,1.97-3.83,3.51-.92,1.49-1.92,2.94-2.8,4.46-.19.33-.1.9,0,1.32.12.47,1,.32,1.57-.33,1.27-1.42,2.79-2.65,3.58-4.45.28-.64.73-1,1.44-1.04,1.35-.08,2.39-.87,3.44-1.59,2.9-2,5.98-3.69,9.1-5.3.85-.43,1.69-.92,2.71-.81,1.01.11,1.84-.38,2.72-.78,3.85-1.75,7.93-2.38,12.13-2.33Zm-33.53,133.93c-.08-.12-.13-.28-.24-.36-.76-.57-1.59-.9-2.52-.49-.21.09-.49.55-.42.7.51,1.09,2.21,1.4,3.05.59.09-.09.09-.29.13-.43Zm46.83-132.99c-.02-.14.02-.33-.06-.43-.62-.81-1.45-1.17-2.45-.91-.24.06-.52.38-.57.62-.05.23.12.68.29.74.72.27,1.47.46,2.22.59.15.02.37-.39.56-.61Zm-41.33,133.91c.01-.14.06-.38.02-.39-.23-.1-.53-.26-.73-.19-.32.12-.35.49-.08.62.2.1.52-.02.78-.04Zm45.45-131.9c-.08-.12-.17-.25-.25-.37-.1.11-.28.2-.3.32-.06.42.11.6.39.45.09-.05.1-.26.15-.4Z" style="fill: #c62c7b;"/>
</svg>